<svg width="18" height="18" viewBox="0 0 18 18" fill="none" xmlns="http://www.w3.org/2000/svg">
<path fill-rule="evenodd" clip-rule="evenodd" d="M5.28148 12.5784C7.7105 12.2235 9.38296 12.254 11.8152 12.5908C11.9913 12.6163 12.1523 12.7047 12.2683 12.8397C12.3843 12.9747 12.4476 13.147 12.4465 13.325C12.4465 13.4953 12.3879 13.6607 12.2822 13.7899C12.0979 14.0151 11.909 14.2366 11.7158 14.4542H12.653C12.7119 14.3839 12.7712 14.3122 12.8311 14.2395C13.0416 13.9814 13.1565 13.6584 13.1562 13.3254C13.1562 12.6068 12.6317 11.9875 11.9124 11.8882C9.42271 11.5436 7.68247 11.5106 5.17892 11.8765C4.45217 11.9826 3.92981 12.6114 3.92981 13.3349C3.92981 13.6561 4.03449 13.9737 4.23286 14.231C4.29141 14.3069 4.34926 14.3814 4.40674 14.4545H5.32122C5.14146 14.2393 4.96612 14.0204 4.79532 13.798C4.69381 13.6649 4.63906 13.502 4.63953 13.3346C4.63953 12.9524 4.91419 12.632 5.28148 12.5784ZM8.543 9.13126C8.82261 9.13126 9.09948 9.07619 9.3578 8.96919C9.61612 8.86219 9.85084 8.70536 10.0486 8.50765C10.2463 8.30993 10.4031 8.07522 10.5101 7.81689C10.6171 7.55857 10.6722 7.2817 10.6722 7.0021C10.6722 6.72249 10.6171 6.44562 10.5101 6.1873C10.4031 5.92898 10.2463 5.69426 10.0486 5.49655C9.85084 5.29884 9.61612 5.142 9.3578 5.035C9.09948 4.928 8.82261 4.87293 8.543 4.87293C7.97831 4.87293 7.43675 5.09725 7.03746 5.49655C6.63816 5.89585 6.41384 6.43741 6.41384 7.0021C6.41384 7.56679 6.63816 8.10835 7.03746 8.50765C7.43675 8.90694 7.97831 9.13126 8.543 9.13126ZM8.543 9.84099C9.29593 9.84099 10.018 9.54189 10.5504 9.00949C11.0828 8.4771 11.3819 7.75502 11.3819 7.0021C11.3819 6.24918 11.0828 5.52709 10.5504 4.9947C10.018 4.4623 9.29593 4.16321 8.543 4.16321C7.79008 4.16321 7.068 4.4623 6.53561 4.9947C6.00321 5.52709 5.70412 6.24918 5.70412 7.0021C5.70412 7.75502 6.00321 8.4771 6.53561 9.00949C7.068 9.54189 7.79008 9.84099 8.543 9.84099Z" fill="black"/>
<path fill-rule="evenodd" clip-rule="evenodd" d="M8.54302 15.1639C12.0707 15.1639 14.9305 12.3041 14.9305 8.77642C14.9305 5.24875 12.0707 2.38892 8.54302 2.38892C5.01535 2.38892 2.15552 5.24875 2.15552 8.77642C2.15552 12.3041 5.01535 15.1639 8.54302 15.1639ZM8.54302 15.8736C12.4628 15.8736 15.6402 12.6962 15.6402 8.77642C15.6402 4.85663 12.4628 1.6792 8.54302 1.6792C4.62323 1.6792 1.4458 4.85663 1.4458 8.77642C1.4458 12.6962 4.62323 15.8736 8.54302 15.8736Z" fill="black"/>
</svg>
