<svg width="18" height="18" viewBox="0 0 18 18" fill="none" xmlns="http://www.w3.org/2000/svg">
<g clip-path="url(#clip0_201_1205)">
<path d="M17.6439 3.53002C17.0513 3.79262 16.4146 3.97005 15.7454 4.05025C16.4359 3.63704 16.9526 2.98671 17.1989 2.22059C16.5501 2.60596 15.84 2.87722 15.0995 3.02257C14.6016 2.4909 13.942 2.13849 13.2233 2.02007C12.5045 1.90165 11.7667 2.02385 11.1245 2.36768C10.4823 2.71151 9.97163 3.25775 9.67168 3.92158C9.37174 4.58541 9.29935 5.3297 9.46575 6.03889C8.15113 5.97289 6.86507 5.63119 5.69104 5.03599C4.51702 4.44078 3.48126 3.60537 2.651 2.58396C2.36711 3.07367 2.20388 3.64145 2.20388 4.24613C2.20356 4.79049 2.33761 5.3265 2.59414 5.80662C2.85066 6.28674 3.22173 6.69612 3.67442 6.99844C3.14942 6.98173 2.63601 6.83987 2.17691 6.58467V6.62725C2.17685 7.39073 2.44095 8.13071 2.92437 8.72164C3.4078 9.31257 4.08079 9.71804 4.82914 9.86926C4.34212 10.0011 3.83151 10.0205 3.33588 9.92604C3.54702 10.583 3.95831 11.1574 4.51215 11.569C5.066 11.9806 5.73469 12.2086 6.4246 12.2213C5.25343 13.1407 3.80706 13.6394 2.31814 13.6372C2.0544 13.6372 1.79087 13.6218 1.52893 13.591C3.04027 14.5628 4.79957 15.0785 6.59635 15.0765C12.6787 15.0765 16.0037 10.0389 16.0037 5.66984C16.0037 5.52789 16.0002 5.38453 15.9938 5.24258C16.6405 4.77486 17.1988 4.19567 17.6425 3.53215L17.6439 3.53002Z" fill="#010101"/>
</g>
<defs>
<clipPath id="clip0_201_1205">
<rect width="17.0333" height="17.0333" fill="white" transform="translate(0.863892 0.026123)"/>
</clipPath>
</defs>
</svg>
