<svg width="18" height="18" viewBox="0 0 18 18" fill="none" xmlns="http://www.w3.org/2000/svg">
<path d="M6.42668 16.8845C7.03885 16.8845 7.53512 16.3882 7.53512 15.776C7.53512 15.1639 7.03885 14.6676 6.42668 14.6676C5.8145 14.6676 5.31824 15.1639 5.31824 15.776C5.31824 16.3882 5.8145 16.8845 6.42668 16.8845Z" fill="black"/>
<path d="M13.1611 16.8845C13.7732 16.8845 14.2695 16.3882 14.2695 15.776C14.2695 15.1639 13.7732 14.6676 13.1611 14.6676C12.5489 14.6676 12.0526 15.1639 12.0526 15.776C12.0526 16.3882 12.5489 16.8845 13.1611 16.8845Z" fill="black"/>
<path d="M16.1562 3.7655C16.1104 3.70899 16.0526 3.66333 15.987 3.63182C15.9214 3.6003 15.8497 3.58371 15.7769 3.58322L5.52015 3.58322L5.84036 4.5685H15.1316L13.8162 10.4802H6.42661L4.17524 3.35168C4.15089 3.27604 4.1086 3.20742 4.05198 3.15166C3.99537 3.0959 3.9261 3.05466 3.8501 3.03147L1.83027 2.41074C1.76817 2.39166 1.70291 2.38499 1.63823 2.39113C1.57355 2.39726 1.51071 2.41608 1.45329 2.4465C1.33735 2.50794 1.25056 2.61292 1.21201 2.73835C1.17347 2.86378 1.18633 2.99938 1.24777 3.11533C1.30921 3.23127 1.41419 3.31807 1.53962 3.35661L3.30819 3.89851L5.56941 11.0418L4.76148 11.7019L4.69744 11.766C4.49759 11.9963 4.38432 12.2891 4.37712 12.5939C4.36993 12.8987 4.46927 13.1965 4.65803 13.436C4.7923 13.5993 4.96293 13.7289 5.15625 13.8145C5.34958 13.9 5.56025 13.9391 5.77139 13.9287H13.9936C14.1242 13.9287 14.2495 13.8768 14.3419 13.7844C14.4343 13.692 14.4862 13.5667 14.4862 13.436C14.4862 13.3054 14.4343 13.1801 14.3419 13.0877C14.2495 12.9953 14.1242 12.9434 13.9936 12.9434H5.69257C5.63584 12.9414 5.58057 12.9249 5.5321 12.8954C5.48363 12.8658 5.44359 12.8243 5.41585 12.7748C5.38812 12.7253 5.37363 12.6694 5.37377 12.6126C5.37392 12.5559 5.3887 12.5001 5.41669 12.4507L6.60396 11.4655H14.2103C14.3242 11.4682 14.4355 11.4315 14.5253 11.3614C14.6152 11.2914 14.6779 11.1923 14.703 11.0812L16.2646 4.18425C16.2796 4.1108 16.2776 4.03491 16.2588 3.96234C16.2401 3.88978 16.205 3.82245 16.1562 3.7655Z" fill="black"/>
</svg>
