<svg width="18" height="18" viewBox="0 0 18 18" fill="none" xmlns="http://www.w3.org/2000/svg">
<g clip-path="url(#clip0_201_1206)">
<path fill-rule="evenodd" clip-rule="evenodd" d="M5.77866 0.782682C6.61117 0.744356 6.8766 0.73584 8.99725 0.73584C11.1179 0.73584 11.3833 0.745066 12.2151 0.782682C13.0469 0.820297 13.6147 0.953015 14.1115 1.14535C14.6317 1.34194 15.1037 1.64925 15.494 2.0467C15.8915 2.43633 16.1981 2.90759 16.394 3.42853C16.587 3.92533 16.719 4.49311 16.7574 5.32348C16.7957 6.15741 16.8042 6.42284 16.8042 8.54278C16.8042 10.6634 16.795 10.9289 16.7574 11.7614C16.7197 12.5918 16.587 13.1595 16.394 13.6563C16.1981 14.1773 15.891 14.6494 15.494 15.0396C15.1037 15.437 14.6317 15.7436 14.1115 15.9395C13.6147 16.1326 13.0469 16.2646 12.2166 16.3029C11.3833 16.3412 11.1179 16.3497 8.99725 16.3497C6.8766 16.3497 6.61117 16.3405 5.77866 16.3029C4.94829 16.2653 4.38051 16.1326 3.8837 15.9395C3.36271 15.7436 2.89067 15.4365 2.50045 15.0396C2.10328 14.6497 1.79592 14.1779 1.59982 13.657C1.40748 13.1602 1.27547 12.5925 1.23715 11.7621C1.19882 10.9282 1.19031 10.6627 1.19031 8.54278C1.19031 6.42213 1.19953 6.1567 1.23715 5.3249C1.27476 4.49311 1.40748 3.92533 1.59982 3.42853C1.79621 2.90765 2.1038 2.43585 2.50116 2.04599C2.89083 1.6489 3.36239 1.34155 3.88299 1.14535C4.3798 0.953015 4.94758 0.821007 5.77795 0.782682H5.77866ZM12.152 2.18793C11.3287 2.15032 11.0817 2.14251 8.99725 2.14251C6.9128 2.14251 6.66581 2.15032 5.84254 2.18793C5.08101 2.22271 4.66795 2.34975 4.39257 2.45692C4.02849 2.59886 3.76802 2.76707 3.49478 3.04031C3.23576 3.2923 3.03642 3.59906 2.91138 3.93811C2.80422 4.21348 2.67718 4.62654 2.6424 5.38807C2.60478 6.21135 2.59698 6.45833 2.59698 8.54278C2.59698 10.6272 2.60478 10.8742 2.6424 11.6975C2.67718 12.459 2.80422 12.8721 2.91138 13.1475C3.0363 13.486 3.23573 13.7933 3.49478 14.0453C3.74673 14.3043 4.05404 14.5037 4.39257 14.6287C4.66795 14.7358 5.08101 14.8629 5.84254 14.8976C6.66581 14.9353 6.91209 14.9431 8.99725 14.9431C11.0824 14.9431 11.3287 14.9353 12.152 14.8976C12.9135 14.8629 13.3266 14.7358 13.6019 14.6287C13.966 14.4867 14.2265 14.3185 14.4997 14.0453C14.7588 13.7933 14.9582 13.486 15.0831 13.1475C15.1903 12.8721 15.3173 12.459 15.3521 11.6975C15.3897 10.8742 15.3975 10.6272 15.3975 8.54278C15.3975 6.45833 15.3897 6.21135 15.3521 5.38807C15.3173 4.62654 15.1903 4.21348 15.0831 3.93811C14.9412 3.57402 14.773 3.31355 14.4997 3.04031C14.2477 2.78131 13.941 2.58198 13.6019 2.45692C13.3266 2.34975 12.9135 2.22271 12.152 2.18793V2.18793ZM8.00009 10.9495C8.55698 11.1813 9.17708 11.2126 9.75448 11.038C10.3319 10.8634 10.8307 10.4938 11.1659 9.99221C11.501 9.49067 11.6517 8.88833 11.592 8.28807C11.5324 7.68781 11.2662 7.12687 10.839 6.70106C10.5666 6.42886 10.2373 6.22044 9.87471 6.0908C9.51212 5.96116 9.12531 5.91352 8.7421 5.95132C8.3589 5.98911 7.98885 6.1114 7.65858 6.30938C7.32831 6.50736 7.04604 6.7761 6.8321 7.09627C6.61817 7.41643 6.47787 7.78004 6.42133 8.16093C6.36478 8.54181 6.39339 8.9305 6.50509 9.29901C6.61679 9.66751 6.80881 10.0067 7.06732 10.2921C7.32583 10.5774 7.6444 10.802 8.00009 10.9495ZM6.15978 5.70532C6.5324 5.33269 6.97477 5.03711 7.46163 4.83545C7.94848 4.63379 8.47029 4.53 8.99725 4.53C9.52422 4.53 10.046 4.63379 10.5329 4.83545C11.0197 5.03711 11.4621 5.33269 11.8347 5.70532C12.2073 6.07794 12.5029 6.5203 12.7046 7.00716C12.9062 7.49401 13.01 8.01582 13.01 8.54278C13.01 9.06975 12.9062 9.59156 12.7046 10.0784C12.5029 10.5653 12.2073 11.0076 11.8347 11.3803C11.0822 12.1328 10.0615 12.5556 8.99725 12.5556C7.933 12.5556 6.91233 12.1328 6.15978 11.3803C5.40724 10.6277 4.98446 9.60704 4.98446 8.54278C4.98446 7.47853 5.40724 6.45786 6.15978 5.70532V5.70532ZM13.9 5.1276C13.9924 5.0405 14.0663 4.93575 14.1174 4.81956C14.1685 4.70338 14.1958 4.57811 14.1977 4.45119C14.1995 4.32426 14.1759 4.19825 14.1282 4.08063C14.0805 3.963 14.0096 3.85614 13.9199 3.76638C13.8301 3.67662 13.7232 3.60578 13.6056 3.55806C13.488 3.51034 13.362 3.48671 13.2351 3.48856C13.1081 3.49041 12.9829 3.51771 12.8667 3.56884C12.7505 3.61997 12.6457 3.69389 12.5586 3.78623C12.3892 3.96581 12.2965 4.20434 12.3001 4.45119C12.3037 4.69803 12.4033 4.93376 12.5779 5.10833C12.7525 5.28289 12.9882 5.38255 13.2351 5.38615C13.4819 5.38975 13.7204 5.297 13.9 5.1276V5.1276Z" fill="#010101"/>
</g>
<defs>
<clipPath id="clip0_201_1206">
<rect width="17.0333" height="17.0333" fill="white" transform="translate(0.480591 0.026123)"/>
</clipPath>
</defs>
</svg>
