<svg width="22" height="22" viewBox="0 0 22 22" fill="none" xmlns="http://www.w3.org/2000/svg">
<g clip-path="url(#clip0_201_1162)">
<rect x="0.354126" y="0.180603" width="21.2917" height="21.2917" rx="10.6458" fill="black"/>
<path d="M5.677 10.3828C5.43202 10.3828 5.23343 10.5814 5.23343 10.8264C5.23343 11.0714 5.43202 11.27 5.677 11.27V10.3828ZM16.6365 11.1401C16.8097 10.9668 16.8097 10.686 16.6365 10.5128L13.8136 7.68986C13.6404 7.51663 13.3595 7.51663 13.1863 7.68986C13.013 7.86308 13.013 8.14394 13.1863 8.31717L15.6955 10.8264L13.1863 13.3357C13.013 13.5089 13.013 13.7897 13.1863 13.963C13.3595 14.1362 13.6404 14.1362 13.8136 13.963L16.6365 11.1401ZM5.677 11.27H16.3228V10.3828H5.677V11.27Z" fill="white"/>
</g>
<defs>
<clipPath id="clip0_201_1162">
<rect width="21.2917" height="21.2917" fill="white" transform="translate(0.354126 0.180603)"/>
</clipPath>
</defs>
</svg>
