<svg width="106" height="19" viewBox="0 0 106 19" fill="none" xmlns="http://www.w3.org/2000/svg">
<path d="M9.06733 0.86377L11.0591 6.99384L17.5047 6.99384L12.2901 10.7824L14.2819 16.9125L9.06733 13.1239L3.85278 16.9125L5.84456 10.7824L0.630004 6.99384H7.07555L9.06733 0.86377Z" fill="#DEEC3C"/>
<path d="M31.0687 0.86377L33.0605 6.99384L39.506 6.99384L34.2914 10.7824L36.2832 16.9125L31.0687 13.1239L25.8541 16.9125L27.8459 10.7824L22.6313 6.99384H29.0769L31.0687 0.86377Z" fill="#DEEC3C"/>
<path d="M53.0701 0.86377L55.0619 6.99384L61.5075 6.99384L56.2929 10.7824L58.2847 16.9125L53.0701 13.1239L47.8556 16.9125L49.8474 10.7824L44.6328 6.99384H51.0784L53.0701 0.86377Z" fill="#DEEC3C"/>
<path d="M75.0715 0.86377L77.0633 6.99384L83.5088 6.99384L78.2943 10.7824L80.286 16.9125L75.0715 13.1239L69.8569 16.9125L71.8487 10.7824L66.6342 6.99384H73.0797L75.0715 0.86377Z" fill="#DEEC3C"/>
<path d="M97.0729 0.86377L99.0647 6.99384L105.51 6.99384L100.296 10.7824L102.287 16.9125L97.0729 13.1239L91.8584 16.9125L93.8502 10.7824L88.6356 6.99384H95.0812L97.0729 0.86377Z" fill="#DEEC3C"/>
</svg>
